<svg width="5462" height="5462" viewBox="0 0 5462 5462" fill="none" xmlns="http://www.w3.org/2000/svg">
<path d="M3817.07 358.8C3815.73 359.466 3814.67 360.933 3814.67 362C3814.67 363.067 3813.6 364.933 3812.13 366.267C3810.8 367.6 3809.2 370 3808.67 371.733C3808.13 373.467 3805.07 377.2 3801.87 380.267C3798.67 383.2 3796 386.533 3796 387.466C3796 388.533 3795.47 389.333 3794.8 389.333C3794.13 389.333 3792.4 391.333 3791.07 393.6C3789.6 396 3781.33 407.2 3772.53 418.533C3763.87 429.733 3755.87 440.533 3754.8 442.533C3753.87 444.4 3751.33 447.733 3749.33 450C3743.73 456.267 3737.33 465.733 3737.33 467.733C3737.33 468.667 3732.93 474.133 3727.73 479.867C3708.8 500.267 3701.07 509.733 3698 516.8C3696.27 520.8 3693.2 525.6 3691.07 527.6C3689.07 529.6 3684 535.867 3680 541.467C3664 563.733 3660.4 568.533 3654.8 574.8C3651.47 578.4 3647.87 583.066 3646.53 585.066C3645.33 587.066 3641.73 591.333 3638.67 594.533C3635.6 597.733 3631.07 603.6 3628.53 607.6C3626 611.6 3620.93 617.867 3617.33 621.6C3613.6 625.333 3610.67 629.067 3610.67 629.733C3610.67 630.4 3606.93 635.867 3602.4 641.867C3593.6 653.2 3591.2 656.667 3589.73 660C3589.33 661.067 3586.27 665.333 3583.2 669.333C3580.13 673.466 3575.87 680 3573.6 684C3571.47 688 3567.47 693.733 3564.8 696.533C3562.13 699.466 3560 702.267 3560 702.8C3560 704.533 3551.73 716.4 3547.07 721.333C3544.67 723.866 3542.67 726.4 3542.67 726.933C3542.67 728.133 3534.8 740.267 3532.8 742C3530.8 743.733 3526.8 750 3522.93 757.333C3521.07 760.667 3518.27 764.8 3516.53 766.8C3514.8 768.667 3513.33 770.667 3513.33 771.467C3513.33 772.133 3511.6 774.8 3509.6 777.333C3507.47 779.866 3504.93 783.466 3504 785.333C3503.07 787.2 3500.27 791.067 3498 794C3495.6 796.933 3491.73 802.667 3489.47 806.667C3487.07 810.667 3482.53 817.333 3479.2 821.333C3476 825.333 3472.13 830.8 3470.8 833.467C3469.33 836 3467.2 838.933 3466 840C3464.8 841.067 3462.53 844.267 3461.07 847.2C3459.6 850 3453.73 859.467 3448.13 867.867C3442.53 876.4 3437.73 883.867 3437.47 884.667C3437.2 885.333 3434.93 888.533 3432.53 891.6C3430 894.667 3428 897.467 3428 898C3428 898.8 3414.27 917.6 3406.8 927.2C3404.53 930 3402.67 933.067 3402.67 934C3402.67 934.933 3401.73 936.4 3400.67 937.333C3399.6 938.266 3395.47 944.133 3391.73 950.533C3387.87 956.8 3384.4 962.133 3383.73 962.4C3383.2 962.667 3382.67 963.467 3382.67 964C3382.67 965.6 3375.33 976.4 3367.73 986.133C3364.27 990.667 3361.33 994.934 3361.33 995.733C3361.33 996.4 3358.8 1000.53 3355.6 1004.8C3349.33 1013.47 3346.8 1017.33 3334.8 1036.13C3330.4 1043.2 3326.67 1049.33 3326.67 1049.87C3326.67 1050.53 3324.93 1053.6 3322.67 1056.93C3320.53 1060.13 3318.67 1063.2 3318.67 1063.73C3318.67 1064.27 3316.93 1066.67 3314.8 1068.93C3312.67 1071.2 3310.67 1074.67 3310.13 1076.53C3309.73 1078.4 3308 1082 3306.27 1084.53C3304.67 1087.2 3301.6 1092 3299.33 1095.47C3297.2 1098.8 3294.4 1103.07 3293.33 1104.67C3288.8 1111.87 3283.33 1119.47 3282 1120.67C3279.47 1122.8 3273.47 1132.8 3265.6 1147.87C3261.6 1155.6 3256.53 1164.4 3254.53 1167.2C3252.4 1170.13 3250.67 1173.07 3250.67 1173.87C3250.67 1174.53 3249.33 1176.93 3247.6 1179.2C3245.87 1181.47 3244 1184.4 3243.6 1185.87C3242.4 1188.8 3220.27 1221.73 3213.2 1231.07C3210.27 1234.67 3209.07 1236.8 3202.8 1248.27C3201.07 1251.33 3198.4 1255.73 3196.67 1258C3195.07 1260.13 3191.87 1265.6 3189.6 1270C3187.2 1274.4 3183.6 1280.93 3181.33 1284.67C3179.2 1288.27 3176.93 1292.27 3176.53 1293.33C3176 1294.4 3174.8 1297.07 3173.87 1299.33C3171.2 1305.47 3166.13 1314.13 3162.13 1319.2C3160.27 1321.73 3158.67 1324.27 3158.67 1324.67C3158.67 1325.2 3157.07 1327.87 3154.93 1330.53C3152.93 1333.2 3149.87 1338 3148.13 1341.33C3145.33 1346.53 3140.13 1355.07 3127.6 1375.33C3119.6 1388.13 3108 1408.27 3108 1409.33C3108 1410 3107.2 1411.33 3106.4 1412.27C3105.47 1413.2 3102.67 1417.87 3100.4 1422.67C3098 1427.47 3094.93 1433.47 3093.6 1436C3092.13 1438.53 3090.13 1442.27 3089.2 1444.13C3085.47 1451.07 3081.87 1456.53 3078.53 1460.53C3076.53 1462.8 3074.53 1466.13 3074 1468C3073.47 1469.87 3072.27 1472.27 3071.33 1473.33C3069.47 1475.47 3057.33 1495.87 3057.33 1496.8C3057.33 1497.07 3053.73 1503.2 3049.47 1510.53C3045.2 1517.87 3038.8 1530 3035.33 1537.6C3030 1549.2 3025.47 1557.6 3015.6 1574C3014.67 1575.47 3012.4 1579.2 3010.4 1582.4C3008.27 1585.6 3006.67 1588.93 3006.67 1589.87C3006.67 1590.67 3005.07 1593.6 3003.2 1596.13C3001.33 1598.67 2997.07 1606 2993.87 1612.67C2990.53 1619.2 2986.67 1626.4 2985.2 1628.67C2983.87 1630.8 2982.4 1633.6 2982 1634.67C2981.6 1635.73 2980 1639.07 2978.4 1642C2976.93 1644.93 2972.67 1653.33 2969.07 1660.53C2965.47 1667.87 2960.93 1675.87 2959.2 1678.53C2957.47 1681.2 2956 1684.13 2956 1685.07C2956 1686.13 2953.07 1691.87 2949.6 1697.87C2943.2 1708.53 2941.07 1712.53 2931.07 1732C2928.27 1737.47 2925.2 1743.2 2924.27 1744.67C2922.4 1747.87 2913.33 1767.73 2913.33 1768.67C2913.33 1769.07 2911.6 1772.27 2909.33 1775.73C2907.2 1779.33 2905.33 1783.47 2905.33 1784.8C2905.33 1786.27 2904.53 1788.67 2903.47 1790C2901.2 1793.2 2884.13 1826.67 2880.93 1834C2879.6 1836.93 2877.47 1841.2 2876.13 1843.33C2874.8 1845.6 2871.33 1852.27 2868.4 1858C2859.07 1876.67 2841.2 1912.27 2840 1914.53C2839.33 1915.73 2837.33 1920 2835.6 1924C2827.87 1941.33 2824 1949.2 2822.67 1950C2822 1950.4 2821.33 1952 2821.33 1953.33C2821.33 1954.8 2819.6 1959.47 2817.47 1963.6C2805.07 1988.8 2786.67 2030.13 2786.67 2033.2C2786.67 2034.4 2784.93 2038.53 2782.8 2042.4C2780.67 2046.27 2778.53 2051.2 2778 2053.33C2776.4 2060.53 2769.07 2061.73 2764.93 2055.6C2763.87 2054 2759.73 2048.93 2755.87 2044.53C2746.27 2033.6 2730.67 2013.87 2730.67 2012.8C2730.67 2011.87 2720.27 1997.87 2716.93 1994.4C2716.13 1993.47 2712.67 1988.8 2709.47 1984C2706.13 1979.2 2700.93 1971.6 2697.73 1966.93C2694.53 1962.4 2692 1958.27 2692 1957.73C2692 1956.67 2682.4 1944.8 2680.93 1944.27C2680 1943.73 2665.87 1925.47 2661.33 1918.67C2656.8 1911.73 2644.8 1896.53 2642 1894C2640.4 1892.53 2637.2 1888.67 2634.8 1885.33C2618.4 1862.27 2605.6 1846.53 2598.4 1840.13C2597.07 1838.93 2596 1837.33 2596 1836.4C2596 1835.6 2595.2 1834.27 2594.27 1833.73C2590.53 1831.47 2576.27 1814.67 2568.8 1803.6C2564.53 1797.2 2557.6 1788.53 2553.47 1784.27C2549.33 1779.87 2543.6 1773.6 2540.67 1770C2537.73 1766.53 2534.67 1763.07 2534 1762.13C2533.2 1761.33 2530.53 1757.87 2528 1754.27C2525.6 1750.8 2523.07 1748 2522.53 1748C2521.87 1748 2520.53 1746.4 2519.47 1744.27C2517.6 1740.8 2512.27 1734 2509.47 1731.6C2504.8 1727.47 2495.6 1717.87 2489.33 1710.67C2485.33 1706 2479.33 1699.33 2476 1696C2472.67 1692.53 2466.13 1685.33 2461.33 1679.87C2456.53 1674.53 2446.67 1664 2439.33 1656.67C2432 1649.2 2423.07 1639.73 2419.33 1635.33C2411.6 1626.13 2393.87 1607.6 2385.47 1599.6C2376.13 1590.93 2359.47 1574 2358 1571.87C2357.2 1570.8 2355.47 1568.13 2354.13 1566C2352.67 1563.73 2347.47 1558 2342.4 1553.2C2337.47 1548.4 2333.33 1543.73 2333.33 1542.8C2333.33 1542 2332.67 1541.33 2331.73 1541.33C2330.8 1541.33 2325.87 1536.93 2320.67 1531.6C2315.47 1526.4 2306.13 1517.2 2299.87 1511.33C2293.73 1505.47 2286.53 1498.13 2284 1494.93C2278.27 1487.73 2270.67 1480 2269.47 1480C2269.07 1480 2265.6 1477.07 2261.87 1473.6C2258.13 1470.13 2250.67 1463.47 2245.33 1458.67C2234.67 1449.2 2228.27 1442.93 2218 1431.87C2211.73 1425.07 2183.2 1398.13 2176 1392.13C2168.93 1386.27 2162.27 1381.33 2161.47 1381.33C2160.4 1381.33 2150 1371.33 2141.87 1362.53C2135.47 1355.6 2127.73 1348.53 2116.67 1339.33C2112.27 1335.6 2106.13 1330.13 2103.07 1327.33C2100.13 1324.4 2095.73 1320.53 2093.47 1318.67C2091.2 1316.8 2087.33 1313.33 2084.93 1310.8C2082.67 1308.27 2079.47 1305.33 2078.13 1304.13C2076.8 1302.93 2074.67 1300.93 2073.47 1299.6C2072.4 1298.4 2070.67 1297.33 2069.73 1297.33C2068.8 1297.33 2066.4 1295.73 2064.13 1293.6C2055.73 1285.73 2039.47 1271.2 2036.93 1269.33C2035.47 1268.27 2032.93 1266 2031.2 1264.4C2029.47 1262.8 2027.07 1261.2 2025.73 1260.8C2024.4 1260.4 2020.53 1257.47 2016.93 1254.4C2013.47 1251.2 2007.07 1246 2002.53 1242.67C1998.13 1239.33 1991.07 1233.87 1986.93 1230.4C1982.8 1226.93 1977.6 1222.67 1975.6 1221.07C1973.47 1219.33 1970 1216.4 1967.87 1214.27C1965.73 1212.27 1963.47 1210.67 1962.93 1210.67C1962.27 1210.67 1959.47 1208.4 1956.53 1205.6C1948.8 1198.13 1936.53 1188 1935.2 1188C1934.53 1188 1931.07 1185.87 1927.33 1183.2C1923.73 1180.67 1919.07 1177.47 1917.07 1176.27C1914.93 1175.07 1913.33 1173.6 1913.33 1173.07C1913.33 1171.6 1907.87 1166.8 1902.4 1163.2C1899.73 1161.47 1895.33 1158 1892.8 1155.33C1890.27 1152.8 1887.33 1150.67 1886.4 1150.67C1885.47 1150.67 1881.33 1147.6 1877.33 1143.87C1862.67 1130.53 1859.73 1127.87 1856.8 1126.4C1855.33 1125.6 1851.87 1122.93 1849.33 1120.4C1846.8 1117.87 1843.07 1114.93 1841.07 1113.87C1838.93 1112.8 1837.33 1111.47 1837.33 1110.8C1837.33 1110.13 1835.6 1108.93 1833.47 1108C1831.33 1107.2 1829.2 1105.6 1828.93 1104.67C1828.53 1103.73 1826.67 1102.67 1824.93 1102.13C1823.07 1101.73 1818.67 1098.67 1815.07 1095.47C1805.2 1086.27 1804.4 1085.6 1801.33 1084C1799.73 1083.2 1797.33 1081.47 1796 1080.27C1794.67 1079.07 1791.47 1076.53 1788.8 1074.67C1786.13 1072.8 1782.4 1070 1780.53 1068.27C1778.67 1066.67 1776.67 1065.33 1775.87 1065.33C1775.2 1065.33 1771.33 1062.67 1767.2 1059.33C1763.2 1056 1759.07 1053.33 1758.13 1053.33C1757.2 1053.33 1755.07 1051.87 1753.33 1050C1751.6 1048.13 1749.6 1046.67 1748.93 1046.67C1747.73 1046.67 1746.13 1045.47 1733.33 1035.47C1729.33 1032.27 1724.67 1029.33 1722.93 1028.8C1721.33 1028.27 1719.33 1026.67 1718.67 1025.2C1717.87 1023.87 1716.4 1022.67 1715.33 1022.67C1714.27 1022.67 1712.67 1021.47 1711.6 1020C1710.53 1018.53 1707.87 1016.67 1705.6 1015.87C1703.2 1015.07 1701.33 1014 1701.33 1013.33C1701.33 1012.8 1699.6 1011.6 1697.47 1010.67C1695.33 1009.87 1693.2 1008.27 1692.8 1007.2C1692.4 1006.13 1691.2 1005.33 1690.27 1005.33C1688.53 1005.33 1685.47 1003.07 1665.2 987.333C1657.87 981.6 1651.2 977.333 1644.53 974.267C1642.27 973.2 1637.33 970.133 1633.6 967.467C1629.73 964.8 1626.27 962.667 1625.87 962.667C1625.33 962.667 1622.93 960.8 1620.4 958.667C1618 956.4 1615.2 954.667 1614.53 954.667C1613.73 954.667 1611.2 953.2 1608.8 951.333C1606.53 949.466 1604.13 947.466 1603.33 946.933C1602.67 946.4 1598.4 942.933 1594 939.2C1589.6 935.466 1584.4 931.466 1582.53 930.533C1572.4 925.2 1568.27 922.667 1566.8 920.8C1565.73 919.6 1564.27 918.667 1563.33 918.667C1562.53 918.667 1560.67 917.467 1559.47 916.133C1558.13 914.8 1555.2 913.2 1552.8 912.8C1550.4 912.267 1547.33 910.8 1546 909.333C1544.67 907.866 1542.8 906.667 1541.73 906.667C1540.8 906.667 1538.93 905.467 1537.73 904C1536.4 902.533 1534.8 901.333 1534 901.333C1533.07 901.333 1531.07 899.867 1529.33 898C1527.6 896.133 1525.47 894.667 1524.53 894.667C1523.73 894.667 1522.27 893.733 1521.33 892.667C1520.4 891.6 1517.2 889.467 1514.13 888C1503.87 882.933 1500.67 880.933 1498.93 878.4C1498 877.066 1496.4 876 1495.47 876C1494.53 876 1492.67 874.8 1491.33 873.333C1490 871.866 1487.87 870.667 1486.53 870.667C1485.2 870.667 1483.33 869.6 1482.4 868.133C1481.47 866.8 1479.33 865.333 1477.6 864.8C1476 864.267 1474 862.667 1473.33 861.2C1472.53 859.866 1470.93 858.667 1469.87 858.667C1468.67 858.667 1466 857.2 1463.73 855.333C1461.6 853.466 1459.07 852 1458.13 852C1457.2 852 1455.33 850.8 1454 849.333C1452.67 847.866 1450.53 846.667 1449.2 846.667C1447.87 846.667 1445.07 845.2 1442.93 843.333C1440.67 841.466 1438.4 840 1437.73 840C1436.93 840 1435.33 838.8 1434 837.333C1432.67 835.866 1430.8 834.667 1429.87 834.667C1428.93 834.667 1426.4 833.2 1424.27 831.333C1422 829.466 1419.07 828 1417.73 828C1416.27 828 1414 826.8 1412.67 825.333C1411.33 823.866 1409.47 822.667 1408.53 822.667C1407.6 822.667 1405.07 821.2 1402.93 819.333C1400.67 817.466 1398.13 816 1397.07 816C1396 816 1394 814.8 1392.67 813.333C1391.33 811.866 1389.07 810.4 1387.47 809.867C1386 809.333 1382.93 807.6 1380.93 805.867C1378.8 804.133 1376.4 802.667 1375.47 802.667C1374.67 802.667 1372.93 801.467 1371.6 800C1370.4 798.533 1368.27 797.333 1366.93 797.333C1365.47 797.333 1363.33 796.133 1362 794.667C1360.67 793.2 1358.8 792 1357.87 792C1356.93 792 1354.4 790.533 1352.27 788.667C1350 786.8 1347.33 785.333 1346.27 785.333C1345.2 785.333 1342.93 784.133 1341.07 782.8C1339.33 781.333 1336.27 779.733 1334.27 779.333C1332.4 778.8 1329.87 777.333 1328.53 775.867C1327.33 774.533 1325.07 773.333 1323.6 773.333C1322.27 773.333 1319.33 771.867 1317.07 770C1314.93 768.133 1312.4 766.667 1311.47 766.667C1310.53 766.667 1308.67 765.467 1307.47 764.133C1306.13 762.667 1303.6 761.2 1301.73 760.667C1299.73 760.267 1296.67 758.667 1294.93 757.2C1293.07 755.866 1290.53 754.667 1289.2 754.667C1286.13 754.667 1278 749.466 1267.07 740.667C1264.8 738.8 1261.07 736.933 1258.8 736.533C1256.4 736 1254 734.533 1253.2 733.2C1252.53 731.733 1250.8 730.667 1249.33 730.667C1248 730.667 1246 729.467 1245.07 728.133C1244 726.667 1241.6 725.066 1239.73 724.667C1237.73 724.133 1235.2 722.667 1233.87 721.2C1232.67 719.866 1229.47 718.267 1226.8 717.867C1224.13 717.333 1220.53 715.867 1218.8 714.533C1217.07 713.066 1214.93 712 1214.13 712C1213.2 712 1209.87 709.333 1206.67 706C1203.07 702.267 1199.6 700 1197.6 700C1196 700 1192.13 698.667 1189.33 696.933C1185.2 694.667 1183.6 694.267 1181.73 695.467C1178.27 697.6 1178 701.333 1181.2 703.467C1182.8 704.667 1185.47 708.667 1187.33 712.533C1191.07 720.533 1198.13 725.866 1206.53 727.333C1209.47 727.866 1212.53 729.067 1213.33 730C1215.47 732.533 1230.53 740 1233.47 740C1235.87 740 1248.4 749.333 1254.4 755.467C1256.13 757.2 1258.27 758.667 1259.2 758.667C1260.13 758.667 1262 759.866 1263.33 761.333C1264.67 762.8 1266.4 764 1267.33 764C1268.13 764 1270.8 765.466 1273.33 767.333C1275.87 769.2 1278.93 770.667 1280.27 770.667C1281.6 770.667 1283.73 771.866 1284.93 773.333C1286.27 774.8 1288.53 776 1290 776C1291.47 776 1294.13 776.933 1296 778C1297.87 779.067 1301.33 780.933 1303.87 782C1309.07 784.533 1313.87 787.733 1323.73 795.6C1327.73 798.8 1331.73 801.333 1332.8 801.333C1333.73 801.333 1335.2 802.533 1336 804C1336.8 805.467 1338.93 807.067 1340.67 807.467C1342.4 807.867 1344.67 809.2 1345.47 810.267C1346.4 811.333 1349.07 812.933 1351.6 814C1354 815.067 1356 816.533 1356 817.2C1356 818 1356.93 818.667 1358 818.667C1359.07 818.667 1361.2 819.866 1362.67 821.333C1364.13 822.8 1367.2 824.8 1369.6 826C1375.2 828.533 1382.13 832.8 1390.13 838.533C1393.73 840.933 1397.87 843.467 1399.6 844.133C1401.33 844.8 1402.67 845.733 1402.67 846.4C1402.67 847.066 1405.87 849.6 1409.73 852C1423.73 860.8 1427.33 863.333 1429.07 865.6C1429.87 866.8 1432.53 868.133 1434.67 868.667C1436.93 869.2 1439.33 870.667 1440 872.133C1440.8 873.467 1442.53 874.667 1443.87 874.667C1445.2 874.667 1447.33 875.866 1448.67 877.333C1450 878.8 1451.87 880 1452.8 880C1453.87 880 1455.6 881.466 1456.8 883.333C1458 885.2 1459.73 886.667 1460.53 886.667C1461.47 886.667 1463.47 888.133 1465.07 890C1466.67 891.867 1468.67 893.333 1469.47 893.333C1471.07 893.333 1475.47 896.667 1484.93 904.933C1488.4 908.133 1492.67 910.667 1494.27 910.667C1495.87 910.667 1498 911.733 1498.93 913.066C1499.87 914.533 1502.93 916.267 1505.6 917.2C1508.27 918.133 1512.27 920.8 1514.27 923.066C1516.4 925.466 1519.73 928.133 1521.73 928.933C1523.73 929.866 1525.33 931.2 1525.33 931.867C1525.33 932.667 1527.6 933.867 1530.4 934.533C1533.87 935.466 1536.67 937.6 1539.33 941.333C1541.6 944.266 1544.13 946.667 1544.93 946.667C1545.87 946.667 1547.6 948.133 1548.8 950C1550 951.867 1552.13 953.333 1553.47 953.333C1554.8 953.333 1556.27 954 1556.67 954.667C1557.47 956 1564 960.667 1570.53 964.667C1571.73 965.333 1574 967.333 1575.73 968.933C1577.33 970.667 1579.6 972 1580.67 972C1581.73 972 1583.2 973.2 1584 974.667C1584.8 976.133 1586.53 977.333 1588 977.333C1589.33 977.333 1592.27 978.8 1594.27 980.533C1596.27 982.4 1599.47 985.066 1601.33 986.667C1603.2 988.133 1606.4 990.8 1608.53 992.667C1610.67 994.533 1613.07 996 1614 996C1614.93 996 1616.67 997.466 1617.87 999.333C1619.07 1001.2 1620.8 1002.67 1621.87 1002.67C1622.8 1002.67 1624.67 1003.87 1626 1005.33C1627.33 1006.8 1629.2 1008 1630.13 1008C1631.07 1008 1632.67 1009.07 1633.6 1010.27C1636 1013.6 1642.53 1018.27 1647.73 1020.53C1650 1021.6 1652 1023.07 1652 1023.87C1652 1024.53 1653.33 1025.6 1655.07 1026.13C1658.4 1027.2 1664.13 1031.33 1676.8 1042.4C1679.07 1044.4 1682.4 1047.07 1684.13 1048.4C1685.87 1049.6 1689.2 1052.13 1691.47 1054C1693.87 1055.87 1696.27 1057.33 1696.93 1057.33C1697.6 1057.33 1699.6 1058.8 1701.33 1060.67C1703.07 1062.53 1705.2 1064 1706 1064C1706.8 1064 1711.73 1067.87 1716.93 1072.67C1722.13 1077.47 1727.07 1081.33 1727.73 1081.33C1728.4 1081.33 1733.33 1085.33 1738.53 1090.27C1743.87 1095.33 1750.27 1100.8 1752.93 1102.67C1755.47 1104.53 1759.07 1107.33 1760.67 1108.93C1762.27 1110.67 1764.4 1112 1765.47 1112C1766.4 1112 1768.67 1113.33 1770.4 1114.93C1772.13 1116.67 1774.8 1119.33 1776.53 1120.93C1778.27 1122.67 1780.27 1124 1781.2 1124C1782 1124 1787.07 1128.13 1792.27 1133.33C1797.6 1138.4 1802.4 1142.67 1802.93 1142.67C1803.6 1142.67 1808.13 1146.53 1813.07 1151.2C1818 1155.87 1827.73 1164.27 1834.67 1169.87C1841.6 1175.47 1848.27 1180.8 1849.33 1181.87C1850.4 1182.8 1855.2 1186.8 1860 1190.67C1864.8 1194.53 1869.6 1198.8 1870.67 1200C1871.73 1201.2 1878.4 1206.93 1885.33 1212.67C1892.27 1218.4 1899.07 1224.13 1900.4 1225.47C1901.73 1226.93 1903.2 1228 1903.73 1228C1904.27 1228 1907.6 1230.8 1911.2 1234C1914.8 1237.33 1918.13 1240 1918.53 1240C1918.93 1240 1922.4 1242.93 1926.13 1246.4C1932 1251.73 1940.93 1259.73 1956.13 1273.33C1958.27 1275.2 1961.33 1277.87 1963.2 1279.33C1975.87 1289.87 1981.2 1294.67 1985.33 1299.33C1992.27 1307.07 1997.73 1312.13 2003.73 1316.67C2006.67 1318.8 2011.73 1324 2014.8 1328.13C2018 1332.27 2022 1336.53 2023.87 1337.73C2032 1342.8 2039.87 1348.8 2046.4 1355.2C2050.4 1358.93 2054.53 1362.8 2055.6 1363.87C2056.67 1364.93 2059.87 1368.8 2062.8 1372.53C2065.6 1376.27 2070.13 1380.8 2072.8 1382.67C2075.47 1384.53 2082.13 1390.27 2087.87 1395.6C2093.47 1400.8 2102.13 1408.93 2107.07 1413.6C2112.13 1418.27 2124 1429.73 2133.47 1439.33C2142.93 1448.8 2151.33 1457.2 2152 1458C2152.8 1458.67 2159.2 1464.93 2166.4 1471.87C2173.47 1478.67 2181.2 1486.27 2183.6 1488.53C2185.87 1490.8 2188.53 1493.2 2189.33 1494C2190.27 1494.67 2192.8 1497.33 2195.2 1499.87C2199.07 1504 2207.33 1512.13 2212 1516.27C2213.07 1517.33 2216.4 1520.93 2219.33 1524.53C2226.8 1533.47 2227.87 1534.67 2239.07 1547.07C2244.53 1553.07 2250.8 1560.13 2252.8 1562.67C2254.93 1565.2 2260 1570.67 2264 1574.8C2268 1578.93 2274.27 1585.87 2277.87 1590.13C2286.27 1600 2288.27 1602.27 2290.4 1604.4C2296.13 1609.6 2301.87 1615.47 2311.33 1625.87C2317.2 1632.4 2324.13 1639.87 2326.67 1642.53C2329.2 1645.2 2333.33 1650 2335.87 1653.33C2338.4 1656.67 2342.8 1661.33 2345.73 1663.73C2348.8 1666.13 2353.73 1671.47 2356.93 1675.6C2360.13 1679.73 2366 1686.4 2370 1690.4C2374 1694.4 2377.6 1698.8 2378 1700.13C2378.4 1701.47 2379.87 1702.93 2381.07 1703.33C2382.27 1703.73 2386.67 1708.4 2390.67 1713.6C2394.67 1718.8 2400.8 1726.13 2404.4 1729.73C2407.87 1733.33 2410.67 1736.8 2410.67 1737.33C2410.67 1738.27 2416.4 1745.87 2421.73 1752C2422.67 1753.07 2424.53 1755.73 2426 1758C2427.33 1760.13 2430.93 1764.4 2434 1767.33C2440 1773.07 2454.67 1791.6 2454.67 1793.33C2454.67 1794 2459.6 1799.6 2465.73 1805.87C2475.33 1815.87 2484.27 1825.73 2488.67 1831.07C2490.53 1833.33 2494.93 1840 2496.8 1843.47C2498.67 1847.07 2516.8 1870.27 2521.07 1874.67C2522.93 1876.53 2527.73 1882.13 2531.73 1887.33C2535.73 1892.4 2539.73 1897.2 2540.53 1898C2541.87 1899.2 2548.4 1907.47 2558.67 1921.33C2560.53 1923.87 2563.47 1928.4 2565.2 1931.33C2566.93 1934.27 2570.67 1939.6 2573.6 1943.33C2576.4 1946.93 2582.93 1955.73 2588 1962.67C2593.07 1969.6 2598.13 1976.27 2599.33 1977.47C2600.4 1978.67 2601.33 1980 2601.33 1980.4C2601.33 1980.93 2602.27 1982.4 2603.33 1983.6C2607.47 1988.4 2614.67 1998.67 2614.67 2000C2614.67 2000.8 2615.33 2001.33 2616.13 2001.33C2618.53 2001.33 2625.33 2009.73 2628.93 2017.33C2632.13 2024.27 2642.13 2039.6 2646.27 2044C2650.27 2048.4 2656 2056.4 2656.67 2058.8C2657.2 2060.13 2658 2061.33 2658.67 2061.33C2659.33 2061.33 2662.67 2065.33 2666.13 2070.27C2669.73 2075.33 2675.33 2083.07 2678.93 2087.47C2682.4 2092 2685.33 2096 2685.33 2096.4C2685.33 2096.8 2688.67 2101.87 2692.67 2107.6C2700.13 2118.4 2708.13 2132.27 2718.4 2152.67C2728.93 2173.47 2729.33 2175.47 2725.33 2182C2723.73 2184.53 2721.87 2186.67 2721.2 2186.67C2719.47 2186.67 2712 2194.8 2712 2196.8C2712 2197.6 2710 2202.13 2707.6 2206.8C2705.07 2211.6 2701.87 2218.93 2700.27 2223.33C2696.93 2233.07 2691.73 2244.67 2680.27 2267.33C2675.47 2276.8 2670.4 2286.93 2669.07 2289.73C2667.73 2292.4 2664.8 2299.47 2662.67 2305.47C2660.53 2311.33 2657.33 2319.2 2655.47 2323.07C2653.73 2326.93 2650.13 2335.33 2647.33 2342C2644.53 2348.53 2640.93 2356.93 2639.33 2360.67C2637.6 2364.27 2634.67 2372 2632.67 2377.73C2630.53 2383.47 2628.4 2388.4 2627.87 2388.8C2627.2 2389.2 2626.67 2390.67 2626.67 2392.13C2626.67 2393.47 2624.93 2398.4 2622.8 2402.93C2620.67 2407.6 2618.4 2412.93 2618 2415.07C2617.47 2417.07 2616.53 2419.07 2615.87 2419.47C2615.2 2419.87 2614.67 2421.2 2614.67 2422.4C2614.53 2423.6 2613.47 2427.07 2612 2430C2610.53 2432.93 2609.33 2435.87 2609.33 2436.67C2609.2 2438.67 2600.53 2459.73 2599.07 2461.6C2598.27 2462.53 2597.33 2464.8 2596.93 2466.67C2596 2470.67 2588.4 2492.93 2586.67 2496.67C2584 2502.53 2580.93 2510.53 2577.87 2520C2576.13 2525.47 2574.13 2531.2 2573.47 2532.67C2572.8 2534.13 2570.93 2538.67 2569.33 2542.67C2567.87 2546.67 2566 2551.2 2565.47 2552.67C2564.8 2554.13 2563.2 2558 2561.87 2561.33C2557.07 2573.6 2554.53 2579.47 2552.67 2582.93C2551.6 2584.8 2550.67 2587.6 2550.67 2589.2C2550.67 2591.87 2546.4 2604 2544 2608.27C2543.2 2609.6 2542.67 2611.2 2542.67 2612C2542.67 2612.8 2540.93 2617.2 2538.67 2622C2536.53 2626.67 2533.47 2634.53 2531.87 2639.6C2530.27 2644.53 2527.73 2652.27 2526.4 2656.67C2524.93 2661.07 2522.4 2667.6 2520.67 2671.33C2518.93 2674.93 2515.33 2684.93 2512.67 2693.33C2510 2701.73 2505.6 2713.73 2502.93 2720C2498.13 2731.47 2494.13 2743.87 2491.87 2754.67C2490.8 2760.27 2487.87 2768.4 2485.2 2773.6C2484.53 2774.93 2483.47 2778.13 2482.8 2780.93C2482.13 2783.73 2480 2790.13 2478.13 2795.2C2476.27 2800.27 2474.67 2805.33 2474.67 2806.53C2474.67 2807.73 2472.53 2813.73 2469.87 2820C2462.93 2836.13 2463.07 2835.73 2460 2846C2458.53 2851.07 2456.53 2857.07 2455.87 2859.33C2455.07 2861.47 2453.33 2867.2 2451.73 2872C2450.27 2876.8 2448.13 2882.67 2447.2 2885.07C2446.13 2887.47 2445.33 2890.4 2445.33 2891.73C2445.33 2892.93 2444.4 2895.73 2443.33 2897.87C2442.27 2899.87 2441.33 2903.2 2441.33 2905.2C2441.33 2907.2 2440.53 2909.87 2439.6 2911.33C2438.67 2912.8 2436.53 2918.53 2434.8 2924C2433.2 2929.47 2431.33 2935.2 2430.67 2936.67C2430 2938.13 2428.27 2943.87 2426.67 2949.33C2424.93 2954.8 2422 2964.4 2420 2970.67C2418 2976.93 2415.87 2984.8 2415.33 2988.27C2414.93 2991.73 2414 2994.93 2413.2 2995.33C2412.53 2995.87 2412 2997.6 2412 2999.2C2412 3004 2404.27 3028.53 2400.4 3036C2399.47 3037.87 2398.67 3040.53 2398.67 3042C2398.67 3043.47 2397.73 3045.87 2396.67 3047.2C2395.6 3048.67 2394.67 3051.47 2394.67 3053.47C2394.67 3057.47 2392.13 3066.67 2387.07 3081.33C2385.2 3086.8 2382.93 3094.27 2382.13 3098C2381.33 3101.6 2380.27 3105.33 2379.73 3106.13C2379.2 3106.93 2378.13 3109.87 2377.47 3112.8C2374 3126.53 2372.8 3130.4 2371.07 3135.33C2370 3138.27 2368.27 3142.27 2367.2 3144.27C2366.13 3146.13 2365.33 3149.07 2365.33 3150.67C2365.33 3152.27 2364.67 3154.67 2363.87 3156.13C2362.13 3159.47 2359.07 3170.27 2357.2 3180C2356.53 3184 2355.07 3189.73 2354 3192.67C2353.07 3195.6 2350.93 3202.4 2349.33 3207.73C2347.6 3213.07 2345.73 3217.73 2345.2 3218.13C2344.53 3218.53 2344 3220 2344 3221.6C2344 3224 2342.27 3230.27 2338.4 3242C2337.73 3244.13 2336.53 3248.67 2335.73 3252C2334.93 3255.33 2333.87 3258.53 2333.33 3259.33C2332.8 3260 2331.87 3263.07 2331.47 3266C2330.93 3268.93 2329.6 3274 2328.67 3277.33C2327.6 3280.67 2325.87 3286.67 2324.67 3290.67C2323.6 3294.67 2320.8 3303.47 2318.67 3310.27C2316.4 3316.93 2314.67 3324 2314.67 3325.87C2314.67 3327.6 2313.6 3332.27 2312.13 3336.27C2308 3347.87 2306.67 3352.67 2306.67 3355.2C2306.67 3356.53 2305.87 3359.47 2304.8 3361.73C2303.73 3364.13 2301.6 3370.13 2300 3375.33C2298.4 3380.4 2296.4 3386.4 2295.73 3388.67C2295.07 3390.8 2293.87 3395.2 2293.2 3398.4C2292.53 3401.47 2291.47 3405.2 2290.67 3406.53C2290 3408 2289.33 3410.67 2289.33 3412.4C2289.33 3414.27 2288.53 3418.67 2287.47 3422.13C2283.87 3434.67 2282.53 3440.8 2281.2 3449.33C2280.4 3454.13 2279.2 3458.67 2278.53 3459.47C2277.87 3460.27 2276.8 3464.67 2276.13 3469.47C2275.33 3474.13 2274.13 3480.13 2273.47 3482.67C2272.67 3485.2 2272 3489.2 2272 3491.6C2272 3495.6 2270 3501.47 2265.87 3509.6C2264.8 3511.47 2264 3514 2264 3515.07C2264 3516.27 2263.33 3518.8 2262.4 3520.93C2260.8 3524.8 2258.27 3536.4 2256 3550C2255.2 3554.4 2252.8 3563.33 2250.67 3570C2243.47 3591.73 2242.67 3594.27 2242.67 3597.47C2242.67 3599.2 2241.73 3602.4 2240.67 3604.53C2239.6 3606.53 2238.67 3610 2238.67 3612C2238.67 3615.47 2234.53 3629.07 2232.4 3632.4C2231.87 3633.2 2230.67 3636.93 2229.73 3640.67C2228.93 3644.27 2227.2 3651.2 2226 3656C2224.8 3660.8 2223.07 3669.47 2222 3675.33C2219.07 3691.87 2217.33 3700.13 2215.33 3706.67C2214.4 3710 2213.2 3715.87 2212.8 3719.73C2212.4 3723.6 2211.6 3727.47 2211.07 3728.4C2210.13 3729.87 2205.2 3747.33 2200.67 3764.93C2199.73 3768.67 2198.53 3772.53 2198 3773.33C2197.47 3774.13 2196.53 3778 2196 3781.73C2195.33 3785.6 2193.6 3792.8 2192.13 3798C2190.53 3803.07 2188.67 3810.93 2187.87 3815.2C2187.2 3819.47 2186 3824.13 2185.33 3825.47C2184.53 3826.8 2184 3829.73 2184 3832C2184 3834.27 2183.2 3838 2182.13 3840.4C2181.2 3842.8 2180 3847.73 2179.47 3851.33C2178.93 3855.07 2177.6 3860.93 2176.4 3864.67C2172.53 3877.33 2172 3879.47 2171.2 3886C2170.53 3892.13 2168.53 3900 2165.07 3910C2164.4 3912.13 2163.2 3916.67 2162.67 3920C2162 3923.33 2161.2 3927.07 2160.67 3928.27C2159.2 3932.13 2153.6 3957.33 2150 3977.33C2146.13 3997.87 2144.27 4007.47 2142.8 4012C2142 4014.53 2141.33 4019.73 2141.33 4023.6C2141.33 4027.33 2140.67 4032.13 2139.87 4034.27C2139.07 4036.27 2138 4041.87 2137.33 4046.67C2136.4 4054.13 2134.27 4061.87 2131.07 4069.33C2129.47 4073.07 2126.53 4087.2 2124.67 4100.67C2123.6 4108 2122.13 4118.53 2121.33 4124C2120.53 4129.47 2118.13 4139.73 2116 4146.67C2110.67 4164.93 2109.33 4170.13 2108 4181.2C2107.33 4186.53 2106.27 4191.6 2105.6 4192.53C2104.93 4193.33 2104 4197.73 2103.6 4202.13C2103.07 4206.67 2102.13 4211.87 2101.47 4213.47C2098.93 4219.73 2094.67 4235.2 2094.67 4238.13C2094.67 4239.73 2094 4242.8 2093.2 4244.8C2092.53 4246.93 2091.33 4253.6 2090.67 4259.87C2090.13 4266.27 2088.93 4274.67 2088.13 4278.67C2086.53 4287.47 2084.13 4301.87 2082.67 4312.13C2082.13 4316.13 2081.07 4321.6 2080.27 4324.13C2076.8 4335.73 2074.27 4347.47 2070 4373.33C2068.93 4379.6 2067.47 4388.53 2066.67 4393.33C2065.87 4398.13 2064.27 4404.67 2063.2 4408C2062.13 4411.33 2061.33 4416.27 2061.33 4418.93C2061.33 4421.6 2060.67 4425.47 2059.87 4427.6C2059.07 4429.6 2057.87 4435.2 2057.2 4440C2056.53 4444.8 2055.47 4451.33 2054.8 4454.67C2054 4458 2052.53 4466.4 2051.33 4473.33C2050.27 4480.27 2048.67 4489.33 2047.87 4493.33C2047.07 4497.33 2045.87 4504 2045.2 4508C2044.4 4512 2042.93 4518.27 2042 4522C2039.2 4532.13 2036 4548.27 2036 4551.73C2036 4553.47 2035.2 4558.53 2034.13 4563.07C2033.07 4567.6 2031.6 4576.4 2030.8 4582.67C2030 4588.93 2028.53 4598.8 2027.33 4604.67C2026.13 4610.53 2024.4 4621.07 2023.33 4628C2022.27 4634.93 2020.53 4646.4 2019.33 4653.33C2015.07 4678.8 2013.6 4687.6 2012.13 4697.33C2011.2 4702.8 2009.87 4710.67 2009.2 4714.67C2008.4 4718.67 2007.2 4728 2006.67 4735.33C2006 4742.67 2004.8 4752.27 2004.13 4756.67C2003.33 4761.07 2002.13 4770 2001.47 4776.67C2000.67 4783.2 1999.2 4793.47 1998 4799.33C1996.93 4805.2 1995.33 4814.53 1994.53 4820C1993.73 4825.47 1992.27 4835.73 1991.2 4842.67C1990.13 4849.73 1989.33 4857.2 1989.33 4859.33C1989.33 4861.47 1988.53 4866.8 1987.47 4871.2C1985.6 4879.33 1982.67 4896.27 1979.87 4914C1979.07 4919.07 1977.6 4928.67 1976.53 4935.33C1975.47 4941.87 1974 4953.07 1973.33 4960C1972.53 4966.93 1971.07 4977.47 1970 4983.33C1968.93 4989.2 1967.2 5001.2 1966 5010C1964.8 5018.8 1963.2 5028.67 1962.53 5032C1957.87 5051.47 1956 5062.67 1956 5070.27C1956 5074.93 1955.33 5080 1954.67 5081.33C1952.93 5084.67 1950.67 5110.8 1952 5113.2C1952.67 5114.4 1953.33 5113.2 1953.87 5109.87C1954.93 5103.87 1962.4 5079.07 1964.13 5075.6C1964.93 5074.27 1966 5067.07 1966.67 5059.6C1968.67 5037.87 1973.6 5014.53 1979.2 5000.13C1981.07 4995.47 1982.93 4988.53 1983.47 4984.8C1984.27 4977.73 1987.33 4961.6 1989.47 4952.93C1990.27 4950.27 1991.33 4942.13 1992 4934.93C1993.2 4922.53 1995.73 4910.8 1998.4 4905.73C1999.07 4904.4 2000 4899.2 2000.4 4894.13C2001.2 4885.47 2002 4882.27 2006.13 4870C2007.2 4867.07 2008.27 4860.8 2008.67 4856C2009.47 4847.07 2012.53 4830.8 2014.93 4822.8C2015.73 4820.4 2016.8 4814.67 2017.47 4810.13C2018 4805.73 2019.87 4797.73 2021.33 4792.67C2025.73 4778.13 2028 4768.13 2029.47 4758.13C2030.13 4753.07 2031.33 4748 2031.87 4746.8C2032.53 4745.6 2033.47 4741.07 2033.87 4736.67C2034.67 4729.2 2037.07 4718.27 2040.13 4708.4C2040.93 4706 2042 4701.2 2042.67 4697.73C2045.2 4682.93 2046.93 4674.93 2048.8 4669.2C2049.87 4665.73 2050.67 4660.67 2050.67 4657.87C2050.8 4652.27 2051.87 4646.53 2055.33 4634C2056.53 4629.6 2058.4 4621.47 2059.33 4616C2062.53 4599.47 2065.07 4587.6 2066.53 4582.67C2067.33 4580.13 2068 4575.87 2068 4573.2C2068 4570.53 2068.8 4565.33 2069.87 4561.87C2073.2 4550 2074.8 4543.47 2076 4536.4C2076.53 4532.67 2077.73 4527.6 2078.4 4525.07C2079.2 4522.67 2080.53 4517.07 2081.33 4512.67C2082.13 4508.27 2083.73 4500.4 2084.8 4495.33C2085.87 4490.13 2087.33 4481.73 2088.13 4476.67C2088.93 4471.47 2090.4 4464 2091.47 4459.87C2092.53 4455.87 2093.33 4450.67 2093.33 4448.53C2093.33 4446.27 2094.13 4441.87 2095.2 4438.53C2101.73 4416.93 2107.87 4392.8 2109.6 4381.33C2110.27 4376.53 2111.73 4369.73 2112.8 4366.13C2113.87 4362.67 2114.67 4358.13 2114.67 4356.13C2114.8 4354.27 2115.6 4351.2 2116.67 4349.33C2117.73 4347.47 2118.53 4344.53 2118.67 4342.67C2118.67 4340.8 2119.47 4336.67 2120.53 4333.33C2123.6 4323.6 2125.33 4315.87 2126.8 4305.73C2127.47 4300.4 2129.33 4291.47 2130.8 4285.73C2132.4 4280 2134.27 4271.73 2134.93 4267.33C2136.4 4258.53 2139.2 4246.93 2141.47 4240.67C2142.27 4238.4 2143.47 4232.8 2144 4228C2144.67 4223.2 2145.73 4217.6 2146.53 4215.6C2147.33 4213.47 2148 4210.13 2148 4208C2148 4206 2148.8 4201.33 2149.87 4197.87C2150.93 4194.27 2152.4 4188.27 2153.07 4184.67C2153.73 4180.93 2155.33 4174.67 2156.53 4170.67C2159.07 4162.67 2161.73 4151.33 2164.13 4140C2164.93 4136 2166.4 4129.6 2167.47 4125.87C2168.53 4122.13 2169.33 4117.07 2169.33 4114.53C2169.33 4110.27 2171.87 4100.93 2175.07 4093.33C2175.87 4091.47 2177.2 4086.93 2178.13 4083.33C2179.07 4079.6 2180.67 4073.07 2181.87 4068.67C2183.87 4060.53 2186.67 4049.33 2189.33 4038.67C2190.8 4032.53 2192.93 4024.93 2196.53 4011.87C2197.73 4007.73 2198.67 4003.07 2198.67 4001.47C2198.67 3999.87 2199.33 3997.33 2200.13 3995.87C2200.8 3994.4 2202.13 3989.47 2202.8 3985.07C2203.6 3980.53 2205.33 3973.2 2206.93 3968.8C2208.4 3964.27 2210.53 3957.07 2211.6 3952.67C2212.67 3948.27 2214.27 3941.33 2215.33 3937.33C2216.27 3933.33 2217.73 3928.27 2218.53 3926.27C2219.33 3924.13 2220 3920.93 2220 3919.07C2220 3917.2 2220.8 3912.93 2221.87 3909.47C2226 3896.4 2227.87 3888.4 2228.8 3882C2229.2 3878.27 2230 3874.67 2230.67 3874C2231.2 3873.2 2232.13 3869.87 2232.53 3866.4C2233.07 3862.93 2234 3859.73 2234.67 3859.33C2235.2 3858.93 2236.13 3855.6 2236.67 3851.73C2237.2 3847.87 2238.13 3843.87 2238.8 3842.67C2240.13 3840.4 2243.6 3827.2 2245.2 3819.33C2245.73 3816.4 2247.73 3808.93 2249.73 3802.67C2251.6 3796.4 2254.13 3788 2255.2 3784C2256.27 3780 2258.4 3772.53 2259.87 3767.47C2261.47 3762.4 2262.67 3756.8 2262.67 3755.2C2262.67 3753.47 2263.2 3751.87 2263.87 3751.47C2264.53 3751.07 2265.47 3748.4 2265.87 3745.73C2266.4 3742.93 2267.6 3738.27 2268.53 3735.33C2270.53 3729.33 2273.73 3718.4 2276 3709.33C2280.67 3690.4 2281.6 3686.53 2283.33 3678.67C2285.73 3667.6 2288.67 3655.87 2289.6 3653.33C2290.13 3652.27 2291.73 3646.8 2293.33 3641.33C2294.93 3635.87 2297.2 3628.93 2298.13 3626C2299.2 3622.93 2300 3619.47 2300 3618C2300 3616.53 2300.8 3613.07 2301.87 3610C2302.93 3607.07 2305.07 3600.4 2306.67 3595.33C2308.27 3590.13 2310.4 3584.13 2311.47 3581.73C2312.53 3579.47 2313.33 3576.53 2313.33 3575.2C2313.33 3573.87 2313.87 3571.07 2314.67 3568.8C2318.93 3554.67 2320.53 3549.47 2321.33 3545.33C2322 3542.8 2323.73 3537.33 2325.33 3533.33C2328.4 3525.47 2330.93 3517.07 2334 3505.33C2336.93 3493.73 2338.93 3486.27 2340 3483.33C2346.4 3466 2348.13 3460.53 2352.67 3444C2353.6 3440.67 2355.33 3434.93 2356.53 3431.2C2357.73 3427.33 2358.67 3423.47 2358.67 3422.53C2358.67 3421.47 2359.87 3416.8 2361.2 3412C2362.67 3407.2 2364.8 3399.73 2366 3395.33C2367.2 3390.93 2369.07 3385.47 2370.13 3383.07C2371.2 3380.8 2372 3378.27 2372 3377.33C2372 3376.53 2373.73 3370.67 2375.73 3364.27C2377.87 3357.87 2380.93 3348.13 2382.67 3342.67C2384.4 3337.2 2386.13 3332 2386.67 3331.33C2387.47 3330 2391.07 3319.2 2395.6 3304C2396.8 3300 2399.2 3292.4 2401.07 3287.33C2402.8 3282.13 2404.8 3275.6 2405.6 3272.67C2406.4 3269.73 2407.47 3266.67 2408 3266C2408.53 3265.2 2409.47 3262.13 2410 3259.07C2410.53 3255.87 2411.47 3253.07 2412.13 3252.53C2412.8 3252.13 2413.33 3250.67 2413.33 3249.33C2413.33 3247.87 2414.27 3244 2415.47 3240.53C2416.53 3237.2 2418.13 3231.6 2418.67 3228.13C2420.8 3217.2 2423.73 3205.6 2424.67 3204C2425.2 3203.07 2426.13 3200.53 2426.8 3198.13C2427.33 3195.87 2429.33 3189.73 2431.2 3184.67C2433.07 3179.47 2434.67 3174.53 2434.67 3173.6C2434.67 3172.53 2435.6 3169.87 2436.67 3167.6C2438.67 3163.2 2446 3142.4 2448 3135.33C2449.47 3130.13 2451.87 3122.93 2454 3118C2454.93 3115.73 2457.07 3109.47 2458.67 3104C2460.4 3098.53 2462.13 3093.33 2462.67 3092.67C2463.2 3091.87 2464.13 3089.2 2464.67 3086.67C2465.2 3084.13 2466.13 3081.33 2466.67 3080.67C2467.2 3079.87 2468.13 3077.2 2468.67 3074.67C2469.2 3072.13 2470.13 3069.33 2470.8 3068.67C2471.33 3067.87 2472.4 3064.8 2473.2 3062C2473.87 3059.07 2475.73 3053.33 2477.33 3049.33C2478.93 3045.33 2480.67 3040 2481.33 3037.47C2482 3035.07 2483.07 3032.4 2483.87 3031.6C2484.67 3030.8 2485.33 3028.93 2485.33 3027.6C2485.33 3026.27 2486.13 3023.2 2487.2 3020.93C2489.47 3015.87 2492.67 3005.07 2494 2998.67C2495.73 2990 2503.07 2967.6 2505.2 2964.67C2505.73 2964 2507.47 2958.8 2509.2 2953.33C2510.8 2947.87 2512.8 2942.27 2513.47 2941.07C2514.13 2939.73 2514.67 2938 2514.67 2937.2C2514.67 2936.4 2516.67 2930.93 2519.2 2924.93C2521.6 2918.93 2524.53 2910.67 2525.73 2906.67C2530.4 2890.67 2533.87 2880.67 2534.93 2879.33C2535.47 2878.67 2536 2877.33 2536 2876.27C2536 2875.2 2536.93 2872.53 2538 2870.27C2540 2865.73 2542.13 2859.87 2547.33 2844.67C2550.27 2835.87 2551.47 2832.8 2555.33 2823.33C2556.27 2821.07 2560.13 2809.47 2564 2797.33C2567.87 2785.2 2571.6 2773.87 2572.4 2772C2573.07 2770.13 2574.13 2766.8 2574.67 2764.67C2575.87 2760.4 2583.2 2739.73 2585.2 2735.33C2587.73 2729.6 2589.73 2724.27 2593.33 2713.33C2598.4 2698.53 2600.4 2693.2 2602.27 2690C2603.07 2688.53 2604.13 2685.33 2604.67 2683.07C2605.07 2680.67 2606.13 2678.4 2606.8 2678C2607.47 2677.47 2608 2676.27 2608 2675.07C2608 2674 2608.8 2671.2 2609.87 2668.93C2610.93 2666.53 2613.33 2660.13 2615.2 2654.67C2617.07 2649.2 2619.87 2641.33 2621.33 2637.33C2626.93 2622.53 2629.33 2615.33 2629.33 2613.6C2629.33 2612.53 2630.13 2609.87 2631.07 2607.6C2632.13 2605.2 2634 2599.73 2635.33 2595.33C2636.67 2590.93 2638.53 2585.47 2639.47 2583.33C2643.6 2573.47 2645.73 2568 2648.67 2559.33C2650.4 2554.13 2653.07 2546.67 2654.67 2542.67C2656.27 2538.67 2658.13 2533.47 2658.93 2531.33C2659.73 2529.07 2660.93 2526.8 2661.47 2526C2662.13 2525.33 2662.67 2524 2662.67 2523.07C2662.67 2521.33 2673.87 2492 2677.87 2483.33C2678.93 2481.07 2680.67 2476.93 2681.73 2474C2682.93 2471.07 2686 2463.07 2688.53 2456.4C2691.2 2449.6 2693.33 2443.47 2693.33 2442.67C2693.33 2442 2694.27 2439.2 2695.47 2436.4C2696.67 2433.6 2698.13 2430.13 2698.67 2428.67C2703.47 2415.73 2705.87 2409.33 2707.47 2405.6C2708.53 2403.2 2709.33 2400.13 2709.33 2398.93C2709.33 2397.6 2710.27 2395.33 2711.33 2393.87C2712.4 2392.53 2713.33 2390.53 2713.33 2389.6C2713.33 2388 2715.2 2383.47 2720.8 2371.07C2721.87 2368.8 2722.67 2366.13 2722.67 2365.07C2722.67 2364.13 2723.6 2362.13 2724.67 2360.8C2725.73 2359.33 2726.67 2356.93 2726.67 2355.33C2726.67 2353.73 2727.6 2351.33 2728.67 2349.87C2729.73 2348.53 2730.67 2346.13 2730.67 2344.8C2730.67 2343.47 2732.13 2339.2 2733.87 2335.47C2739.6 2323.2 2742.4 2316.67 2743.33 2313.33C2743.87 2311.47 2745.2 2308.8 2746.13 2307.33C2747.2 2305.87 2748 2304 2748 2303.2C2748 2301.2 2752.67 2291.2 2756 2286C2757.47 2283.73 2758.8 2281.33 2759.07 2280.67C2759.33 2279.87 2760.4 2277.2 2761.33 2274.67C2762.27 2272.13 2763.47 2264.13 2764 2256.93C2764.67 2249.73 2765.87 2243.07 2766.67 2242C2771.33 2236.4 2778.93 2242.53 2791.07 2261.6C2799.33 2274.67 2809.33 2289.33 2813.87 2295.2C2816 2298 2820 2304.53 2822.67 2309.87C2825.33 2315.07 2831.73 2326.53 2836.67 2335.33C2848 2355.33 2866 2390.27 2867.33 2394.67C2867.87 2396.53 2871.73 2403.07 2876 2409.33C2880.13 2415.6 2884.13 2422.27 2884.67 2424C2885.2 2425.73 2886.8 2429.07 2888.13 2431.2C2893.2 2439.47 2905.33 2465.33 2905.33 2467.87C2905.33 2469.33 2905.87 2470.8 2906.53 2471.33C2907.2 2471.73 2908.53 2474.27 2909.47 2477.07C2910.4 2479.73 2913.33 2485.73 2916.27 2490.4C2919.07 2494.93 2921.33 2499.33 2921.33 2500.13C2921.33 2500.8 2923.07 2505.2 2925.2 2509.73C2927.33 2514.27 2929.47 2519.47 2930 2521.2C2930.53 2523.07 2932.8 2527.33 2934.8 2530.8C2936.93 2534.13 2938.67 2537.47 2938.67 2538.13C2938.67 2540.13 2946.13 2557.6 2951.2 2567.33C2953.87 2572.4 2956 2577.33 2956 2578.27C2956 2579.07 2956.8 2581.47 2957.87 2583.6C2958.93 2585.6 2960.67 2589.73 2961.73 2592.67C2962.8 2595.6 2965.6 2602.53 2967.87 2608C2972.93 2620.4 2975.47 2628.4 2983.73 2657.33C2985.87 2664.93 2989.07 2674.53 2996.67 2696C2999.07 2702.93 3002.4 2714 3004 2720.67C3007.87 2736.93 3007.47 2735.73 3010.67 2744.67C3012.27 2749.07 3014.4 2756.27 3015.33 2760.67C3016.27 2765.07 3018 2772.8 3019.2 2778C3020.4 2783.07 3022.27 2792.67 3023.33 2799.33C3024.27 2805.87 3026 2814.27 3027.2 2818C3031.87 2833.07 3036 2853.07 3036 2860.67C3036 2864.4 3036.67 2869.47 3037.33 2872C3038.13 2874.53 3039.33 2883.87 3040 2892.67C3040.67 2901.6 3041.87 2910.53 3042.67 2912.53C3047.73 2926.13 3051.6 3077.87 3048 3122.67C3045.6 3153.07 3044 3165.47 3042.4 3168.4C3041.33 3170.13 3040.4 3179.73 3039.87 3192.67C3039.33 3204.4 3038.27 3217.33 3037.47 3221.33C3034 3237.33 3033.2 3242.4 3032 3251.47C3031.47 3256.8 3030.27 3262.13 3029.6 3263.47C3028.93 3264.93 3027.87 3268.53 3027.33 3271.6C3026.8 3274.8 3026 3277.6 3025.33 3278C3024.8 3278.4 3023.87 3283.33 3023.33 3288.93C3022.53 3298.27 3020.67 3306.4 3017.2 3316C3016.53 3317.87 3015.47 3322.93 3014.8 3327.33C3014.13 3331.73 3012.27 3338.67 3010.8 3342.67C3009.2 3346.67 3007.33 3352.67 3006.67 3356C3006.13 3359.33 3004.93 3363.73 3004.27 3366C3003.47 3368.13 3001.6 3374.53 3000 3380C2997.07 3389.87 2994.4 3397.2 2992 3401.6C2991.2 3402.93 2990.13 3406.13 2989.47 3408.93C2985.6 3423.73 2984.93 3426.4 2983.2 3430.4C2982.13 3432.8 2981.33 3436.53 2981.33 3438.8C2981.33 3441.07 2980.53 3444.8 2979.6 3447.07C2976.67 3454 2974.53 3460.4 2973.2 3466C2972.53 3468.93 2970.27 3474.93 2968.13 3479.33C2966 3483.73 2962.4 3492.4 2960 3498.67C2957.73 3504.93 2954.13 3513.6 2952 3518C2948 3526.4 2944.67 3534.13 2940.8 3544C2939.47 3547.33 2934.93 3557.2 2930.67 3566C2926.27 3574.8 2922.4 3583.47 2921.87 3585.2C2921.47 3586.93 2917.47 3595.33 2913.2 3603.87C2908.8 3612.4 2905.33 3620 2905.33 3620.8C2905.33 3621.6 2904.13 3625.2 2902.53 3628.8C2901.07 3632.4 2899.33 3636.53 2898.8 3638C2897.47 3641.33 2891.33 3653.87 2888 3660C2886.67 3662.53 2883.47 3668.8 2881.07 3674C2878.53 3679.07 2873.47 3688.67 2869.87 3695.33C2866.27 3701.87 2862 3710 2860.67 3713.33C2859.2 3716.67 2856.27 3722.27 2854.13 3726C2852 3729.6 2848 3737.2 2845.07 3742.67C2839.73 3753.07 2836.27 3759.2 2827.33 3774.27C2824.4 3779.33 2821.6 3784.4 2820.93 3785.87C2820 3788.4 2808 3806.8 2806.53 3808C2806.13 3808.4 2804.27 3812 2802.4 3816.13C2800.53 3820.13 2797.2 3826.13 2794.8 3829.33C2792.53 3832.4 2790.67 3835.87 2790.67 3836.93C2790.67 3837.87 2790.13 3838.67 2789.47 3838.67C2788.8 3838.67 2787.73 3840.67 2787.33 3842.93C2786.8 3845.33 2784.8 3849.73 2782.8 3852.67C2780.93 3855.6 2778.8 3859.07 2778 3860.27C2777.33 3861.47 2774.27 3866 2771.33 3870.27C2768.4 3874.53 2764.4 3881.07 2762.27 3884.93C2757.07 3894.8 2734 3930.53 2729.87 3935.07C2729.2 3936 2728.13 3937.6 2727.6 3938.67C2727.07 3939.73 2725.87 3941.87 2724.93 3943.33C2724 3944.8 2721.73 3948.4 2720 3951.33C2718.13 3954.4 2715.87 3958 2714.93 3959.33C2714.13 3960.8 2712.8 3963.2 2712.13 3964.8C2710 3969.73 2698.93 3987.87 2694.4 3993.87C2692 3997.07 2689.07 4001.07 2688 4002.67C2686.93 4004.27 2684.93 4007.07 2683.73 4008.67C2682.4 4010.4 2681.33 4012.13 2681.33 4012.67C2681.33 4013.07 2678.53 4017.33 2675.07 4022C2659.6 4042.93 2655.6 4048.67 2651.87 4055.6C2650.93 4057.33 2649.73 4058.67 2649.07 4058.67C2648.53 4058.67 2648 4059.33 2648 4060.13C2648 4061.07 2645.87 4064.27 2643.33 4067.47C2640.8 4070.53 2638.67 4073.47 2638.67 4073.87C2638.67 4074.13 2635.87 4078.53 2632.4 4083.6C2623.07 4097.2 2620.8 4100.4 2618.93 4102.53C2616.27 4105.33 2610.8 4114.27 2606.93 4122C2602.53 4130.67 2593.47 4144 2591.87 4144C2591.2 4144 2590.27 4145.07 2589.73 4146.27C2589.33 4147.6 2586.93 4151.2 2584.4 4154.27C2582 4157.33 2580 4160.13 2580 4160.67C2580 4161.2 2576.13 4167.47 2571.33 4174.8C2566.53 4182 2562.67 4188.27 2562.67 4188.8C2562.67 4189.2 2559.07 4193.6 2554.67 4198.53C2550.27 4203.47 2546.67 4208 2546.67 4208.4C2546.67 4209.6 2541.47 4216.93 2535.87 4224.13C2533.2 4227.33 2529.73 4232.4 2528 4235.33C2526.27 4238.27 2524 4241.2 2523.07 4241.73C2522.13 4242.27 2521.33 4243.47 2521.33 4244.13C2521.33 4246.27 2507.47 4266.67 2502.13 4272.67C2499.47 4275.6 2493.87 4283.07 2489.6 4289.33C2485.47 4295.6 2481.6 4300.93 2481.07 4301.47C2480.53 4301.87 2477.2 4307.6 2473.73 4314.27C2467.87 4325.47 2453.2 4346.13 2444.8 4355.07C2442.93 4357.07 2441.33 4359.07 2441.33 4359.33C2441.33 4360.27 2432.93 4372.53 2428.4 4378.13C2426 4381.2 2424 4384.27 2424 4385.07C2424 4385.87 2423.2 4387.07 2422.27 4387.6C2420.4 4388.8 2413.87 4398.4 2410.4 4405.33C2409.07 4407.87 2404.93 4413.33 2401.33 4417.33C2397.6 4421.33 2394.67 4425.07 2394.67 4425.47C2394.67 4426.8 2377.33 4448.53 2375.87 4449.07C2375.2 4449.33 2374.67 4450.4 2374.67 4451.33C2374.67 4452.27 2373.2 4454.8 2371.47 4456.93C2369.73 4458.93 2365.33 4465.73 2361.6 4472C2357.87 4478.27 2351.07 4487.47 2346.67 4492.53C2342.13 4497.47 2336.93 4504.13 2335.07 4507.2C2333.2 4510.13 2329.6 4515.07 2327.07 4518.13C2324.67 4521.2 2322.67 4524.27 2322.67 4525.07C2322.67 4525.87 2321.87 4527.07 2320.93 4527.6C2319.87 4528.13 2318.67 4529.6 2318.13 4530.67C2314.67 4538 2312 4541.87 2307.2 4546.93C2304.27 4550.13 2300.13 4555.2 2298 4558.27C2296 4561.47 2293.87 4564 2293.33 4564C2291.6 4564 2281.6 4578 2276.53 4587.6C2273.87 4592.53 2270 4598.4 2268 4600.67C2266 4602.8 2262.4 4607.6 2260 4611.33C2257.47 4614.93 2252.27 4621.2 2248.4 4625.2C2244.4 4629.2 2240.4 4634 2239.33 4635.87C2238.4 4637.73 2235.87 4640.93 2233.87 4642.8C2231.73 4644.67 2229.07 4647.6 2228 4649.33C2226.93 4650.93 2224.93 4653.73 2223.73 4655.33C2222.4 4657.07 2221.33 4659.07 2221.33 4659.87C2221.33 4660.67 2220.8 4661.33 2220.13 4661.33C2219.47 4661.33 2217.07 4665.2 2214.67 4670C2212.27 4674.8 2209.87 4678.67 2209.33 4678.67C2208.8 4678.67 2204.8 4683.2 2200.53 4688.67C2196.27 4694.13 2192.27 4698.67 2191.73 4698.67C2191.33 4698.67 2188.67 4702.53 2186.13 4707.33C2183.47 4712 2179.07 4718.13 2176.53 4720.93C2173.87 4723.73 2169.07 4730.53 2165.87 4736.27C2162.53 4741.87 2159.07 4746.67 2158.13 4747.07C2157.2 4747.47 2154.93 4750.67 2153.33 4754C2151.6 4757.47 2146.8 4764.67 2142.67 4769.87C2138.53 4775.07 2134.27 4781.6 2133.47 4784.27C2132.53 4787.07 2129.47 4791.73 2126.53 4794.8C2123.47 4798 2121.33 4801.47 2121.33 4803.33C2121.33 4806.13 2121.73 4806.4 2125.33 4805.33C2129.47 4804.13 2132.8 4800.8 2142.67 4788.67C2145.87 4784.67 2149.2 4781.33 2150 4781.33C2150.67 4781.33 2152.4 4779.73 2153.73 4777.6C2157.33 4772 2162.4 4765.2 2167.33 4759.33C2173.47 4752.13 2180.8 4742.4 2181.47 4740.4C2181.73 4739.6 2183.6 4736.93 2185.6 4734.4C2192.27 4726.27 2198.67 4717.47 2198.67 4716.4C2198.67 4715.87 2201.2 4712.53 2204.4 4709.2C2212.53 4700.4 2232 4675.2 2232 4673.6C2232 4672.8 2232.8 4671.6 2233.87 4671.07C2234.93 4670.53 2241.87 4662 2249.2 4652.27C2256.67 4642.67 2263.2 4634.67 2263.73 4634.67C2264.4 4634.67 2268 4630.4 2272 4625.33C2275.87 4620.13 2281.2 4613.6 2283.87 4610.8C2286.53 4608 2294 4598.8 2300.67 4590.13C2307.2 4581.6 2312.93 4574.67 2313.47 4574.67C2314 4574.67 2317.47 4570.4 2321.47 4565.33C2325.33 4560.27 2329.2 4556 2330.13 4556C2331.07 4556 2333.87 4552.8 2336.4 4548.93C2338.93 4545.2 2342.67 4540.53 2344.53 4538.8C2346.4 4536.93 2350.8 4531.07 2354.27 4525.47C2357.73 4520 2361.47 4514.53 2362.53 4513.2C2363.73 4512 2367.47 4508 2370.8 4504.53C2374.13 4500.93 2379.47 4494.53 2382.53 4490.27C2385.73 4486.13 2389.07 4482.67 2389.87 4482.67C2390.67 4482.67 2394.4 4478.67 2398 4473.87C2401.73 4469.07 2405.73 4464.53 2407.07 4463.87C2408.27 4463.2 2409.33 4461.73 2409.33 4460.8C2409.33 4459.73 2410.27 4458.27 2411.47 4457.33C2412.53 4456.27 2416 4451.47 2418.93 4446.4C2421.87 4441.33 2426.13 4435.6 2428.27 4433.6C2430.4 4431.6 2435.47 4425.73 2439.47 4420.4C2443.33 4415.07 2447.73 4410.13 2449.2 4409.47C2450.53 4408.67 2454.4 4404.27 2457.6 4399.6C2463.33 4391.07 2477.2 4374.27 2488.13 4362.4C2496.4 4353.47 2496.93 4352.8 2497.87 4349.73C2498.4 4348.27 2501.6 4343.6 2505.2 4339.6C2512.53 4331.2 2521.2 4320.13 2528.53 4309.6C2531.33 4305.6 2535.6 4300.53 2538.27 4298.27C2540.8 4296 2544.8 4291.07 2547.2 4287.33C2549.6 4283.6 2554.8 4277.2 2558.8 4273.2C2566.8 4264.93 2566.8 4264.93 2574 4254.67C2578.53 4248.27 2589.87 4233.07 2598 4222.4C2601.47 4217.73 2618.53 4197.73 2623.47 4192.53C2627.87 4187.73 2633.33 4180.53 2633.33 4179.33C2633.33 4178.13 2643.2 4165.33 2644.13 4165.33C2644.53 4165.33 2646.67 4162.8 2648.8 4159.6C2650.93 4156.53 2653.07 4153.33 2653.73 4152.67C2654.27 4151.87 2658.13 4146.8 2662.13 4141.33C2666.13 4135.87 2671.87 4128.8 2674.8 4125.73C2677.6 4122.53 2680 4119.73 2680 4119.33C2680 4118.93 2684.67 4112.27 2690.4 4104.67C2696 4097.07 2702.8 4087.87 2705.33 4084C2707.87 4080.27 2710.8 4076.27 2711.73 4075.33C2712.53 4074.4 2713.33 4073.07 2713.33 4072.67C2713.33 4071.47 2726.4 4055.07 2727.73 4054.4C2729.33 4053.73 2739.33 4041.07 2743.33 4034.67C2745.33 4031.33 2749.33 4026 2752 4022.67C2754.8 4019.33 2758.93 4013.33 2761.47 4009.33C2763.87 4005.33 2769.2 3997.47 2773.33 3992C2777.47 3986.53 2782.27 3979.6 2784 3976.67C2785.87 3973.73 2787.73 3970.67 2788.27 3970C2788.93 3969.2 2792.67 3964.13 2796.67 3958.67C2800.67 3953.2 2804.4 3948 2804.93 3947.33C2805.6 3946.53 2810.93 3939.07 2816.8 3930.67C2822.67 3922.27 2828.4 3913.87 2829.73 3912C2832.27 3908.4 2841.73 3894.13 2849.07 3882.67C2851.73 3878.67 2855.73 3872.93 2858 3869.87C2860.13 3866.8 2862.93 3863.07 2864 3861.33C2869.6 3852.93 2873.47 3848 2874.53 3848C2875.2 3848 2876.53 3846 2877.47 3843.6C2879.33 3838.93 2884.67 3830.8 2891.6 3821.6C2894 3818.4 2896 3815.33 2896 3814.67C2896 3812.4 2912.27 3784.67 2914.8 3782.67C2915.33 3782.27 2918.53 3776.53 2922 3770C2925.47 3763.33 2929.87 3755.87 2931.87 3753.33C2933.73 3750.8 2936.53 3746.8 2938 3744.53C2939.47 3742.13 2941.87 3738.53 2943.2 3736.53C2944.67 3734.4 2947.87 3729.33 2950.53 3725.33C2953.07 3721.33 2956.67 3715.73 2958.53 3712.8C2963.33 3705.6 2961.33 3709.33 2984.93 3662C2987.47 3656.8 2990.13 3651.73 2990.67 3650.67C2998.53 3637.6 3007.6 3620.93 3021.47 3593.6C3024.93 3586.8 3028.27 3580.53 3029.07 3579.6C3029.73 3578.8 3031.6 3574.53 3033.07 3570.4C3034.67 3566.13 3036.53 3561.6 3037.2 3560.4C3037.87 3559.07 3039.73 3554.67 3041.33 3550.67C3042.93 3546.67 3046.53 3538.53 3049.33 3532.67C3052.13 3526.8 3056.93 3516 3060 3508.67C3063.07 3501.33 3066.13 3494.8 3066.8 3494C3067.47 3493.33 3068 3491.6 3068 3490C3068 3488.53 3068.8 3486.13 3069.73 3484.67C3070.8 3483.2 3072.93 3478.13 3074.53 3473.33C3076.27 3468.53 3078.4 3462.8 3079.33 3460.67C3080.27 3458.4 3081.73 3455.2 3082.53 3453.33C3084.27 3449.2 3087.33 3440.53 3090.8 3429.33C3092.4 3424.53 3094.4 3418.8 3095.33 3416.67C3096.13 3414.4 3098 3409.07 3099.33 3404.67C3100.53 3400.27 3103.47 3391.6 3105.73 3385.33C3108 3379.07 3110.27 3371.6 3110.8 3368.67C3111.33 3365.73 3112.27 3361.47 3113.07 3359.33C3117.07 3347.6 3118.67 3341.6 3118.67 3338.27C3118.67 3336.27 3119.47 3332.93 3120.53 3330.93C3121.47 3328.93 3122.8 3323.87 3123.2 3319.73C3123.73 3315.47 3124.8 3311.73 3125.47 3311.33C3126.13 3310.8 3126.67 3309.2 3126.67 3307.47C3126.67 3305.87 3128.4 3299.47 3130.67 3293.33C3132.8 3287.07 3134.93 3278.4 3135.47 3274C3136 3269.6 3136.93 3265.2 3137.73 3264.27C3138.4 3263.33 3139.33 3258.27 3139.6 3252.93C3140 3247.73 3141.07 3240.8 3142.13 3237.6C3143.2 3234.53 3144 3230 3144 3227.6C3144 3225.2 3144.8 3220.67 3145.87 3217.33C3149.87 3204.8 3150.93 3198.8 3152 3183.07C3152.67 3174.27 3153.73 3165.87 3154.4 3164.4C3155.2 3163.07 3156.13 3152.67 3156.67 3141.33C3157.2 3130 3158.13 3118 3158.8 3114.8C3160.53 3107.2 3160.4 2979.2 3158.8 2967.2C3158.13 2962.13 3157.2 2948.93 3156.67 2938C3156.27 2926.93 3155.33 2916.13 3154.53 2914C3153.87 2911.73 3152.8 2902.53 3152.13 2893.33C3150.8 2876.13 3149.07 2865.73 3145.87 2856.93C3144.8 2854.27 3144 2849.6 3144 2846.8C3144 2844 3143.07 2838.8 3142 2835.2C3140.93 2831.6 3140 2826.13 3140 2823.07C3140 2820 3139.33 2815.87 3138.53 2813.73C3137.73 2811.73 3135.47 2803.33 3133.33 2795.2C3131.33 2787.07 3129.2 2779.6 3128.67 2778.67C3127.6 2776.93 3127.2 2775.6 3123.47 2758.67C3122.53 2753.87 3120.53 2746.4 3119.33 2742C3118 2737.6 3116.27 2730.67 3115.33 2726.67C3110 2703.6 3106.27 2691.33 3102.4 2682.67C3100.8 2679.33 3098.8 2673.6 3097.87 2670C3093.6 2653.6 3090.13 2643.73 3084.8 2631.47C3082.93 2627.2 3081.33 2623.07 3081.33 2622.4C3081.33 2621.6 3080.53 2619.2 3079.47 2616.93C3078.4 2614.53 3076.27 2609.07 3074.67 2604.67C3072.93 2600.27 3070.8 2594.8 3069.87 2592.4C3068.8 2590.13 3068 2587.6 3068 2586.93C3068 2586.13 3067.07 2583.87 3066 2581.73C3064.93 2579.73 3062.8 2574.93 3061.2 2571.33C3059.73 2567.6 3056.13 2559.87 3053.33 2554C3048.8 2544.4 3043.07 2531.07 3035.73 2512.67C3034.27 2508.93 3028.67 2496.93 3023.2 2485.87C3017.73 2474.8 3013.33 2465.2 3013.33 2464.67C3013.33 2464 3012.53 2462.53 3011.47 2461.47C3009.33 2459.07 3000 2441.33 3000 2439.6C3000 2439.07 2998.4 2436.13 2996.53 2433.2C2992.27 2426.27 2983.33 2409.6 2978.8 2400C2970.93 2383.2 2960.8 2364.27 2955.47 2356.13C2946.93 2343.2 2939.6 2330.8 2936 2323.33C2934.27 2319.73 2930.4 2313.07 2927.33 2308.67C2924.4 2304.27 2920.13 2297.33 2918.13 2293.33C2916 2289.33 2912 2282.53 2909.2 2278.27C2906.27 2274 2904 2270.13 2904 2269.87C2904 2269.2 2893.87 2253.73 2884 2239.6C2881.07 2235.33 2878.67 2231.33 2878.67 2230.67C2878.67 2230.13 2876.13 2226.4 2873.07 2222.4C2866.53 2214.27 2861.33 2206.93 2861.33 2205.87C2861.33 2205.33 2859.47 2202.27 2857.07 2198.8C2854.8 2195.47 2848.67 2184.53 2843.6 2174.67C2838.53 2164.8 2834 2156.4 2833.47 2156C2832.93 2155.6 2832 2154.4 2831.47 2153.33C2830.93 2152.27 2829.73 2149.87 2828.67 2148C2825.6 2142.8 2826.13 2128.27 2829.33 2123.33C2830.8 2121.07 2832 2118.13 2832 2116.67C2832 2115.07 2832.67 2113.2 2833.47 2112.4C2834.27 2111.6 2835.33 2108.93 2836 2106.53C2837.33 2101.07 2840.67 2091.6 2843.47 2085.33C2845.6 2080.8 2861.47 2048.8 2864 2044.27C2865.2 2042.13 2874.8 2021.73 2882 2006C2883.73 2002.27 2887.2 1994.8 2889.73 1989.33C2892.27 1983.87 2894.8 1977.87 2895.33 1976C2895.87 1974.13 2897.2 1971.47 2898.13 1970C2899.2 1968.53 2900 1966.53 2900 1965.47C2900 1964.4 2903.6 1956 2908.13 1946.8C2912.53 1937.6 2918 1926.13 2920.27 1921.33C2922.53 1916.53 2926.27 1908.4 2928.8 1903.33C2931.2 1898.13 2934.4 1890.93 2935.87 1887.33C2937.2 1883.6 2941.73 1874 2945.73 1866C2952.67 1852 2956.4 1844.13 2964.67 1826C2972.67 1808.53 2980.27 1792.53 2982 1789.07C2983.07 1787.2 2984 1784.93 2984 1784.13C2984 1782.67 2991.87 1764.8 2995.2 1758.67C2998.53 1752.53 3001.07 1747.47 3011.07 1726.67C3031.73 1683.47 3039.2 1668.67 3040.67 1666.67C3041.47 1665.6 3043.33 1662 3044.67 1658.67C3050.27 1645.07 3057.73 1629.73 3060.8 1625.73C3062.53 1623.47 3064 1621.07 3064 1620.67C3064 1619.47 3080.67 1586.13 3089.33 1570C3092.8 1563.33 3097.33 1554.67 3099.33 1550.67C3101.2 1546.67 3104.4 1540.27 3106.27 1536.67C3113.6 1522.4 3115.87 1517.73 3119.2 1510C3121.2 1505.6 3123.73 1500.13 3124.93 1498C3126 1495.73 3130 1488 3133.73 1480.67C3137.47 1473.33 3142 1464.93 3143.87 1462C3145.73 1459.07 3148.93 1453.33 3150.93 1449.33C3154.93 1441.6 3155.87 1440.13 3161.73 1430.93C3163.73 1427.73 3165.33 1424.93 3165.33 1424.67C3165.33 1423.07 3178.67 1396.4 3184.27 1387.07C3187.73 1381.07 3190.67 1375.87 3190.67 1375.47C3190.67 1375.07 3193.2 1370.4 3196.4 1365.07C3199.47 1359.73 3203.73 1351.87 3205.73 1347.6C3207.87 1343.33 3212.93 1334.27 3216.93 1327.6C3221.07 1320.8 3226.8 1310.8 3229.6 1305.33C3232.53 1299.87 3236 1293.47 3237.33 1291.33C3238.8 1289.07 3241.73 1283.73 3243.87 1279.33C3246.13 1274.93 3250 1267.6 3252.53 1262.93C3255.07 1258.27 3257.6 1253.2 3258.13 1251.6C3258.67 1250 3260.53 1246.27 3262.53 1243.33C3264.4 1240.4 3267.07 1235.87 3268.4 1233.33C3271.2 1228.27 3284.53 1206 3288.27 1200.27C3289.6 1198.27 3291.07 1195.73 3291.6 1194.67C3292 1193.6 3293.87 1190.8 3295.6 1188.4C3297.33 1186.13 3300.8 1180.4 3303.2 1175.73C3317.33 1148.67 3322.53 1138.8 3325.6 1134C3327.47 1131.07 3331.2 1124.4 3334 1119.33C3338.53 1111.07 3349.2 1093.07 3354.67 1084.67C3359.47 1077.2 3383.73 1036 3387.07 1029.33C3389.2 1025.33 3392.93 1018.4 3395.47 1014C3397.87 1009.6 3400.53 1004.8 3401.2 1003.33C3401.87 1001.87 3406.93 994 3412.53 986C3424.4 968.533 3437.87 946.667 3444.13 934.667C3446.67 929.867 3451.07 922.533 3454 918.267C3461.6 907.2 3463.6 904.133 3466.8 897.333C3470.67 889.333 3478.93 875.466 3480.27 874.933C3480.8 874.667 3481.33 873.733 3481.47 872.933C3481.47 872 3484.13 867.733 3487.47 863.333C3490.67 858.933 3494 854.133 3494.67 852.667C3495.47 851.2 3497.07 848.4 3498.4 846.4C3499.6 844.4 3504.27 836.934 3508.53 829.733C3512.93 822.533 3519.87 811.6 3523.87 805.333C3533.47 790.8 3534.27 789.333 3536 785.333C3536.8 783.466 3539.73 778.933 3542.53 775.333C3545.2 771.6 3550.27 763.867 3553.73 758C3562 744.267 3562.67 743.2 3567.07 736.933C3569.07 734 3570.67 730.933 3570.67 730.267C3570.67 729.467 3573.33 725.467 3576.4 721.467C3579.6 717.333 3583.87 711.067 3585.87 707.467C3587.87 703.867 3591.47 698.4 3593.87 695.467C3596.27 692.4 3599.6 686.933 3601.33 683.333C3603.07 679.6 3606.67 673.6 3609.2 670C3617.87 657.6 3621.33 652.266 3621.33 651.333C3621.33 650.933 3624 646.933 3627.33 642.667C3630.67 638.4 3633.33 634.533 3633.33 634.133C3633.33 632.533 3642.67 617.733 3645.87 614.267C3647.87 612.133 3650.93 607.333 3652.8 603.6C3654.8 599.733 3658.4 594 3661.07 590.8C3663.6 587.6 3667.73 581.2 3670.13 576.533C3672.53 571.733 3676.53 565.6 3678.93 562.8C3681.33 559.867 3684.53 555.2 3686 552.4C3687.33 549.6 3691.33 543.733 3694.67 539.333C3701.47 530.266 3703.47 527.2 3705.2 523.333C3705.87 521.733 3707.47 519.733 3708.67 518.667C3710 517.6 3714.8 510.934 3719.47 503.867C3724.13 496.667 3728.53 490.533 3729.2 490C3730 489.6 3733.6 484 3737.47 477.6C3741.33 471.2 3746.4 463.866 3748.67 461.333C3751.07 458.8 3755.07 453.333 3757.47 449.333C3759.87 445.333 3764.13 439.6 3766.93 436.667C3769.73 433.733 3773.47 428.533 3775.2 425.066C3776.93 421.6 3781.33 415.867 3785.07 412.267C3788.67 408.667 3793.33 402.667 3795.2 398.933C3797.2 395.066 3799.2 392 3799.73 392C3800.27 392 3803.33 386.667 3806.67 380.267C3812.67 368.667 3814.4 366.266 3816.13 367.466C3817.33 368.133 3822.67 360.933 3822.67 358.8C3822.67 356.933 3820.13 356.933 3817.07 358.8Z" fill="white"/>
</svg>
